# xmcd CD database file
#
# Track frame offsets:
#	150
#	12888
#	23518
#	37498
#	47998
#	58961
#	72259
#	83471
#	96099
#	107166
#	118384
#	135167
#	148550
#	160750
#	170563
#	184037
#	193252
#	206592
#	218062
#	229499
#
# Disc length: 3253 seconds
#
# Revision: 1
# Processed by: cddbd v1.5.2PL0 Copyright (c) Steve Scherf et al.
# Submitted via: CDex 1.51
#
DISCID=240cb314
DTITLE=Various Artist - 101 Northern Soul [Universal Music] CD4
DYEAR=2018
DGENRE=Soul/R&B
TTITLE0=Barbara McNair - Baby A Go-Go
TTITLE1=Bobby Sheen - Dr. Love
TTITLE2=Brenda Holloway - Think It Over (Before You Break My Heart)
TTITLE3=Chris Clark - Love's Gone Bad
TTITLE4=Dusty Springfield - Live It Up
TTITLE5=Earl Van Dyke and The Soul Brothers - Nowhere To Run
TTITLE6=Eddie Floyd - Bring It On Home To Me
TTITLE7=Kim Weston - I'm Still Loving You
TTITLE8=Martha Reeves and The Vandellas - One Way Out
TTITLE9=Mary Wells - Drop In The Bucket
TTITLE10=O.C. Smith - I'm Glad I Fell In Love With You
TTITLE11=Odyssey - Battened Ships
TTITLE12=Roy Hamilton - The Panic Is On
TTITLE13=Shorty Long - Out To Get You
TTITLE14=Tammi Terrell - All I Do Is Think About You
TTITLE15=The Lollipops - Look What You Done Boy
TTITLE16=The Supremes - Love Is Like An Itching In My Heart
TTITLE17=The Temptations - I Want A Love I Can See
TTITLE18=Four Tops - Gotta Say It, Gonna Tell It Like It Is
TTITLE19=Marvin Gaye - It's A Bitter Pill To Swallow
EXTD=YEAR: 2018
EXTT0=
EXTT1=
EXTT2=
EXTT3=
EXTT4=
EXTT5=
EXTT6=
EXTT7=
EXTT8=
EXTT9=
EXTT10=
EXTT11=
EXTT12=
EXTT13=
EXTT14=
EXTT15=
EXTT16=
EXTT17=
EXTT18=
EXTT19=
PLAYORDER=
